<svg width="46" height="36" viewBox="0 0 46 36" fill="none" xmlns="http://www.w3.org/2000/svg">
<mask id="mask0_23_1015" style="mask-type:luminance" maskUnits="userSpaceOnUse" x="0" y="0" width="46" height="36">
<path d="M0 0H45.1636V36H0V0Z" fill="white"/>
</mask>
<g mask="url(#mask0_23_1015)">
<mask id="mask1_23_1015" style="mask-type:luminance" maskUnits="userSpaceOnUse" x="-1" y="-1" width="47" height="38">
<path d="M45.6445 -0.69886H-0.610046V36.8284H45.6445V-0.69886Z" fill="white"/>
</mask>
<g mask="url(#mask1_23_1015)">
<mask id="mask2_23_1015" style="mask-type:luminance" maskUnits="userSpaceOnUse" x="0" y="0" width="46" height="36">
<path d="M6.10352e-05 0H45.1637V36H6.10352e-05V0Z" fill="white"/>
</mask>
<g mask="url(#mask2_23_1015)">
<mask id="mask3_23_1015" style="mask-type:luminance" maskUnits="userSpaceOnUse" x="-1" y="-1" width="47" height="38">
<path d="M45.6445 -0.69886H-0.609985V36.8284H45.6445V-0.69886Z" fill="white"/>
</mask>
<g mask="url(#mask3_23_1015)">
<path d="M7.29211 0.443184C7.29211 0.443184 10.0603 4.14205 15.1398 4.55114C16.166 4.52727 20.8364 4.49659 21.9205 4.38409C23.3455 4.14205 25.858 3.59318 25.858 3.59318C25.858 3.59318 30.5694 3.03068 32.3285 5.19886C31.9637 3.45341 27.791 1.23068 25.9705 1.09091C25.5989 1.04659 14.2194 1.26818 13.8171 1.28523C13.4148 1.30568 7.29211 0.443184 7.29211 0.443184Z" fill="black"/>
</g>
<mask id="mask4_23_1015" style="mask-type:luminance" maskUnits="userSpaceOnUse" x="-1" y="-1" width="47" height="38">
<path d="M45.6445 -0.69886H-0.609985V36.8284H45.6445V-0.69886Z" fill="white"/>
</mask>
<g mask="url(#mask4_23_1015)">
<path d="M7.29211 0.443184C7.29211 0.443184 10.0603 4.14205 15.1398 4.55114C16.166 4.52727 20.8364 4.49659 21.9205 4.38409C23.3455 4.14205 25.858 3.59318 25.858 3.59318C25.858 3.59318 30.5694 3.03068 32.3285 5.19886C31.9637 3.45341 27.791 1.23068 25.9705 1.09091C25.5989 1.04659 14.2194 1.26818 13.8171 1.28523C13.4148 1.30568 7.29211 0.443184 7.29211 0.443184Z" fill="black"/>
</g>
</g>
</g>
<mask id="mask5_23_1015" style="mask-type:luminance" maskUnits="userSpaceOnUse" x="-1" y="-1" width="47" height="38">
<path d="M45.6445 -0.69886H-0.610046V36.8284H45.6445V-0.69886Z" fill="white"/>
</mask>
<g mask="url(#mask5_23_1015)">
<mask id="mask6_23_1015" style="mask-type:luminance" maskUnits="userSpaceOnUse" x="0" y="0" width="46" height="36">
<path d="M6.10352e-05 0H45.1637V36H6.10352e-05V0Z" fill="white"/>
</mask>
<g mask="url(#mask6_23_1015)">
<mask id="mask7_23_1015" style="mask-type:luminance" maskUnits="userSpaceOnUse" x="-1" y="-1" width="47" height="38">
<path d="M45.6445 -0.69886H-0.609985V36.8284H45.6445V-0.69886Z" fill="white"/>
</mask>
<g mask="url(#mask7_23_1015)">
<path d="M27.2047 3.44319C28.524 3.44319 30.8252 3.6341 32.1104 4.84432C31.3161 3.23523 27.699 1.3091 25.9638 1.17273C25.9468 1.17273 25.882 1.16932 25.6399 1.16932C23.6184 1.16932 14.1172 1.35682 13.8206 1.37046H13.8036C13.3434 1.37046 8.58086 0.709097 7.49336 0.555688C8.10359 1.27501 10.7797 4.11478 15.1468 4.46591C15.399 4.4591 15.9002 4.45228 16.5138 4.44546C18.3445 4.4216 21.1059 4.38069 21.9104 4.29887C23.3115 4.06364 25.8138 3.51819 25.8411 3.51137C25.8547 3.51137 26.4138 3.44319 27.2047 3.44319ZM32.482 5.52273L32.2638 5.25341C31.1047 3.825 28.5956 3.61364 27.2047 3.61364C26.424 3.61364 25.8718 3.67841 25.8684 3.67841C25.8513 3.68182 23.3456 4.23069 21.9343 4.46591C21.1161 4.55114 18.3479 4.58864 16.5172 4.6125C15.9036 4.62273 15.4024 4.62955 15.1434 4.63637C10.074 4.23069 7.25132 0.528415 7.22404 0.490915L7.10132 0.330688L7.30245 0.357961C7.36382 0.368188 13.3059 1.20342 13.8036 1.20342C14.1104 1.18978 23.6184 0.998869 25.6399 0.998869C25.899 0.998869 25.957 1.00228 25.9809 1.00569C26.8877 1.07728 28.3979 1.66364 29.7377 2.4716C31.2684 3.38864 32.2433 4.37728 32.4104 5.18182L32.482 5.52273Z" fill="black"/>
</g>
<mask id="mask8_23_1015" style="mask-type:luminance" maskUnits="userSpaceOnUse" x="-1" y="-1" width="47" height="38">
<path d="M45.6445 -0.69886H-0.609985V36.8284H45.6445V-0.69886Z" fill="white"/>
</mask>
<g mask="url(#mask8_23_1015)">
<path d="M27.2047 3.44319C28.524 3.44319 30.8252 3.6341 32.1104 4.84432C31.3161 3.23523 27.699 1.3091 25.9638 1.17273C25.9468 1.17273 25.882 1.16932 25.6399 1.16932C23.6184 1.16932 14.1172 1.35682 13.8206 1.37046H13.8036C13.3434 1.37046 8.58086 0.709097 7.49336 0.555688C8.10359 1.27501 10.7797 4.11478 15.1468 4.46591C15.399 4.4591 15.9002 4.45228 16.5138 4.44546C18.3445 4.4216 21.1059 4.38069 21.9104 4.29887C23.3115 4.06364 25.8138 3.51819 25.8411 3.51137C25.8547 3.51137 26.4138 3.44319 27.2047 3.44319ZM32.482 5.52273L32.2638 5.25341C31.1047 3.825 28.5956 3.61364 27.2047 3.61364C26.424 3.61364 25.8718 3.67841 25.8684 3.67841C25.8513 3.68182 23.3456 4.23069 21.9343 4.46591C21.1161 4.55114 18.3479 4.58864 16.5172 4.6125C15.9036 4.62273 15.4024 4.62955 15.1434 4.63637C10.074 4.23069 7.25132 0.528415 7.22404 0.490915L7.10132 0.330688L7.30245 0.357961C7.36382 0.368188 13.3059 1.20342 13.8036 1.20342C14.1104 1.18978 23.6184 0.998869 25.6399 0.998869C25.899 0.998869 25.957 1.00228 25.9809 1.00569C26.8877 1.07728 28.3979 1.66364 29.7377 2.4716C31.2684 3.38864 32.2433 4.37728 32.4104 5.18182L32.482 5.52273Z" fill="black"/>
</g>
</g>
</g>
<mask id="mask9_23_1015" style="mask-type:luminance" maskUnits="userSpaceOnUse" x="-1" y="-1" width="47" height="38">
<path d="M45.6445 -0.69886H-0.610046V36.8284H45.6445V-0.69886Z" fill="white"/>
</mask>
<g mask="url(#mask9_23_1015)">
<mask id="mask10_23_1015" style="mask-type:luminance" maskUnits="userSpaceOnUse" x="0" y="0" width="46" height="36">
<path d="M6.10352e-05 0H45.1637V36H6.10352e-05V0Z" fill="white"/>
</mask>
<g mask="url(#mask10_23_1015)">
<mask id="mask11_23_1015" style="mask-type:luminance" maskUnits="userSpaceOnUse" x="-1" y="-1" width="47" height="38">
<path d="M45.6445 -0.69886H-0.609985V36.8284H45.6445V-0.69886Z" fill="white"/>
</mask>
<g mask="url(#mask11_23_1015)">
<mask id="mask12_23_1015" style="mask-type:luminance" maskUnits="userSpaceOnUse" x="2" y="4" width="44" height="32">
<path d="M2.88068 4.5375H45.1636V35.9557H2.88068V4.5375Z" fill="white"/>
</mask>
<g mask="url(#mask12_23_1015)">
<path d="M35.7751 8.8159L34.5206 10.1045L31.5956 7.59204H26.2229C28.0365 7.59204 30.7808 12.9102 30.7808 12.9102C35.5058 12.6579 38.6013 13.2477 38.6013 13.2477C38.6013 13.2477 41.8092 13.9807 43.3263 14.5159C46.1967 14.5159 43.9194 16.5716 43.9194 16.5716C43.9194 16.5716 44.1444 17.5261 44.3967 19.7216C41.8774 21.4943 36.2388 21.1023 36.2388 21.1023C36.2388 21.1023 37.2785 20.3454 37.2785 19.8341C37.3535 19.6261 37.166 18.4261 36.549 17.7818C33.9308 15.1909 31.8513 17.8636 31.8513 17.8636C31.8513 17.8636 27.5388 22.2341 25.6331 24.9034C24.2388 27.6477 27.4604 27.4363 27.4604 27.4363C27.4604 27.4363 32.1308 27.6613 35.0149 23.4954C35.6558 27.3 33.4263 30.4193 33.4263 30.4193C33.4263 30.4193 37.0672 29.1375 38.1785 21.9852C40.9706 26.5193 38.0933 30.9818 38.0933 30.9818C38.0933 30.9818 39.1058 31.0363 39.6138 30.9818C38.0115 33.4295 33.2285 35.6522 31.4285 35.8227C24.6751 36.3 22.2001 35.3147 22.2001 35.3147C22.2001 35.3147 26.0797 35.1068 26.7581 34.6977C29.3729 33.5284 26.9831 32.3897 26.9831 32.3897C26.9831 32.3897 15.5695 28.5273 11.7649 25.4932C11.0422 25.0261 4.50696 21.3 8.35923 17.0488C8.03196 17.0591 6.32742 16.6398 3.01378 21.7057C2.70015 20.6079 3.77401 16.4079 7.82401 14.4579C8.10014 14.1511 12.3411 12.3136 12.0717 5.70681C13.4388 7.07726 13.507 14.3454 13.507 14.3454C13.507 14.3454 17.5092 20.5466 22.6774 16.3738C19.3672 14.867 15.8865 11.5329 14.8876 9.39204C14.7445 9.18749 20.9081 14.3829 25.5751 13.7557C22.8683 10.7079 20.0217 6.76022 16.2922 5.87386C16.6433 5.66249 21.7229 5.97954 22.0024 5.90113C22.2854 5.82272 25.224 4.98749 26.2501 4.88863C26.857 4.77613 29.0933 4.70113 30.5831 5.19886C31.7933 5.45113 35.7751 8.8159 35.7751 8.8159Z" fill="black"/>
</g>
</g>
<mask id="mask13_23_1015" style="mask-type:luminance" maskUnits="userSpaceOnUse" x="-1" y="-1" width="47" height="38">
<path d="M45.6445 -0.69886H-0.609985V36.8284H45.6445V-0.69886Z" fill="white"/>
</mask>
<g mask="url(#mask13_23_1015)">
<mask id="mask14_23_1015" style="mask-type:luminance" maskUnits="userSpaceOnUse" x="2" y="4" width="44" height="32">
<path d="M2.88068 4.5375H45.1636V35.9557H2.88068V4.5375Z" fill="white"/>
</mask>
<g mask="url(#mask14_23_1015)">
<path d="M35.7751 8.8159L34.5206 10.1045L31.5956 7.59204H26.2229C28.0365 7.59204 30.7808 12.9102 30.7808 12.9102C35.5058 12.6579 38.6013 13.2477 38.6013 13.2477C38.6013 13.2477 41.8092 13.9807 43.3263 14.5159C46.1967 14.5159 43.9194 16.5716 43.9194 16.5716C43.9194 16.5716 44.1444 17.5261 44.3967 19.7216C41.8774 21.4943 36.2388 21.1023 36.2388 21.1023C36.2388 21.1023 37.2785 20.3454 37.2785 19.8341C37.3535 19.6261 37.166 18.4261 36.549 17.7818C33.9308 15.1909 31.8513 17.8636 31.8513 17.8636C31.8513 17.8636 27.5388 22.2341 25.6331 24.9034C24.2388 27.6477 27.4604 27.4363 27.4604 27.4363C27.4604 27.4363 32.1308 27.6613 35.0149 23.4954C35.6558 27.3 33.4263 30.4193 33.4263 30.4193C33.4263 30.4193 37.0672 29.1375 38.1785 21.9852C40.9706 26.5193 38.0933 30.9818 38.0933 30.9818C38.0933 30.9818 39.1058 31.0363 39.6138 30.9818C38.0115 33.4295 33.2285 35.6522 31.4285 35.8227C24.6751 36.3 22.2001 35.3147 22.2001 35.3147C22.2001 35.3147 26.0797 35.1068 26.7581 34.6977C29.3729 33.5284 26.9831 32.3897 26.9831 32.3897C26.9831 32.3897 15.5695 28.5273 11.7649 25.4932C11.0422 25.0261 4.50696 21.3 8.35923 17.0488C8.03196 17.0591 6.32742 16.6398 3.01378 21.7057C2.70015 20.6079 3.77401 16.4079 7.82401 14.4579C8.10014 14.1511 12.3411 12.3136 12.0717 5.70681C13.4388 7.07726 13.507 14.3454 13.507 14.3454C13.507 14.3454 17.5092 20.5466 22.6774 16.3738C19.3672 14.867 15.8865 11.5329 14.8876 9.39204C14.7445 9.18749 20.9081 14.3829 25.5751 13.7557C22.8683 10.7079 20.0217 6.76022 16.2922 5.87386C16.6433 5.66249 21.7229 5.97954 22.0024 5.90113C22.2854 5.82272 25.224 4.98749 26.2501 4.88863C26.857 4.77613 29.0933 4.70113 30.5831 5.19886C31.7933 5.45113 35.7751 8.8159 35.7751 8.8159Z" fill="black"/>
</g>
</g>
</g>
</g>
</g>
<mask id="mask15_23_1015" style="mask-type:luminance" maskUnits="userSpaceOnUse" x="2" y="4" width="44" height="32">
<path d="M2.88098 4.53751H45.1639V36H2.88098V4.53751Z" fill="white"/>
</mask>
<g mask="url(#mask15_23_1015)">
<path d="M22.6806 35.3727C23.4102 35.5568 25.0636 35.8705 27.9443 35.8705C29.0284 35.8705 30.1943 35.8261 31.4215 35.7375C33.1534 35.5773 37.7556 33.467 39.4431 31.0807C39.317 31.0875 39.167 31.0909 38.9931 31.0909C38.5465 31.0909 38.0931 31.067 38.0897 31.067L37.9465 31.0568L38.0249 30.9375C38.0522 30.8932 40.7556 26.5977 38.2261 22.2273C37.6329 25.8 36.3954 27.8455 35.4477 28.9398C34.3977 30.1568 33.4909 30.4841 33.4534 30.4977L33.2011 30.5864L33.3579 30.3682C33.3784 30.3375 35.4784 27.3477 34.9636 23.7136C32.3386 27.3341 28.367 27.5216 27.5897 27.5216C27.5113 27.5216 27.4636 27.5182 27.4568 27.5182C27.4568 27.5182 27.3988 27.5216 27.3068 27.5216C26.867 27.5216 25.7965 27.45 25.3738 26.758C25.0909 26.2977 25.1522 25.6602 25.5579 24.8625C27.45 22.2102 31.7454 17.85 31.7897 17.8057C31.8238 17.7614 32.7681 16.5682 34.2102 16.5682C35.0284 16.5682 35.8329 16.9534 36.6068 17.7205C37.2409 18.3818 37.4352 19.575 37.3636 19.8477C37.3499 20.2636 36.7772 20.7818 36.4704 21.0307C36.6988 21.0409 37.0909 21.0545 37.5852 21.0545C39.3545 21.0545 42.5659 20.8739 44.3079 19.6807C44.059 17.5534 43.8374 16.5989 43.8374 16.5886L43.8238 16.5409L43.8613 16.5068C44.1443 16.2546 44.8363 15.4909 44.6624 15.0375C44.5534 14.7511 44.0897 14.6011 43.3261 14.6011L43.2988 14.5943C41.8022 14.0693 38.6147 13.3398 38.5806 13.333C38.5636 13.3296 36.4534 12.9341 33.1227 12.9341C32.3522 12.9341 31.5647 12.9546 30.784 12.9955L30.7295 12.9989L30.7056 12.9511C30.6784 12.8966 27.9647 7.67728 26.2227 7.67728H25.9295V7.50683H31.6261L31.65 7.52728L34.517 9.98865L35.6488 8.82274C35.1136 8.37615 31.6534 5.5091 30.5659 5.28069C29.5431 4.94319 28.2545 4.89206 27.5761 4.89206C26.9318 4.89206 26.4681 4.93638 26.267 4.97047C25.3772 5.0591 23.0386 5.70001 22.0738 5.96933L22.0261 5.98297C21.9988 5.99319 21.9409 6.00001 21.7329 6.00001C21.3886 6.00001 20.7818 5.97956 20.0761 5.95228C19.1522 5.9216 18.1091 5.8841 17.342 5.8841C17.0591 5.8841 16.8545 5.89092 16.7079 5.89774C19.7045 6.79092 22.084 9.56592 24.3886 12.2557C24.8181 12.7602 25.2272 13.2341 25.6397 13.6977L25.7454 13.8171L25.5886 13.8375C25.3227 13.875 25.0465 13.8921 24.767 13.8921C22.9772 13.8921 19.8545 13.1557 15.1125 9.65115C16.2477 11.7273 19.5 14.8364 22.7147 16.2955L22.8375 16.3534L22.7318 16.4386C21.5284 17.4102 20.2875 17.9011 19.0397 17.9011C15.7397 17.9011 13.4591 14.4273 13.4386 14.3932L13.425 14.3727V14.3489C13.4216 14.2773 13.3431 7.65683 12.167 5.95228C12.2556 9.7091 10.8988 12.5318 8.13405 14.3421C8.01474 14.4205 7.91587 14.4852 7.8886 14.5159L7.86133 14.5364C4.13519 16.3296 2.90792 20.158 3.05792 21.4875C5.02496 18.525 6.78405 16.9602 8.15792 16.9602C8.20564 16.9602 8.24996 16.9602 8.28746 16.9636C8.31133 16.9636 8.33178 16.9636 8.34883 16.9636H8.53974L8.42383 17.1068C7.50678 18.1159 7.11815 19.1796 7.26815 20.2636C7.50337 21.9545 8.97951 23.6557 11.6591 25.3261C11.7238 25.367 11.775 25.3977 11.8091 25.4216C15.5659 28.4148 26.8943 32.2705 27.0102 32.308C27.0613 32.3318 28.0738 32.8227 28.067 33.525C28.0602 33.9784 27.6306 34.3977 26.792 34.7727C26.25 35.1 23.7443 35.3011 22.6806 35.3727ZM27.9443 36.0375C23.8329 36.0375 22.234 35.4205 22.1693 35.3932L21.8113 35.2534L22.1965 35.233C22.234 35.2295 26.0625 35.0182 26.7136 34.6261C27.4977 34.275 27.8931 33.9068 27.8965 33.525C27.9034 32.9284 26.9556 32.4682 26.9454 32.4648C26.8431 32.4307 15.484 28.5648 11.7102 25.558C11.6829 25.5409 11.6318 25.5102 11.5704 25.4693C8.84655 23.7716 7.34314 22.0295 7.1011 20.2875C6.9511 19.2 7.31246 18.1364 8.17837 17.1273H8.15792C6.81815 17.1273 5.06246 18.7261 3.08519 21.7534L2.98633 21.9068L2.93519 21.7295C2.6386 20.7068 3.57269 16.4216 7.7761 14.3898C7.82042 14.3455 7.90564 14.2909 8.0386 14.2023C10.8136 12.3852 12.1431 9.52842 11.9897 5.71024L11.9795 5.49206L12.1329 5.64547C13.4795 6.99887 13.5852 13.7761 13.592 14.3216C13.7829 14.6011 15.9613 17.7341 19.0397 17.7341C20.2125 17.7341 21.3818 17.2807 22.5204 16.3909C19.1522 14.8193 15.767 11.4818 14.8091 9.42956L14.792 9.39206L14.8329 9.30342H14.8841C14.925 9.30342 14.9284 9.30342 15.2045 9.51137C19.9159 12.9921 23.0045 13.725 24.767 13.725C24.9852 13.725 25.2 13.7114 25.4045 13.6909C25.0295 13.2648 24.6545 12.825 24.259 12.3648C21.8727 9.57956 19.4045 6.70228 16.275 5.95569L16.0704 5.90797L16.2511 5.80228C16.3193 5.75797 16.5068 5.71706 17.342 5.71706C18.1125 5.71706 19.159 5.75456 20.0829 5.78524C20.7852 5.8091 21.392 5.82956 21.7329 5.82956C21.9306 5.82956 21.9715 5.82274 21.9818 5.82274L22.0295 5.8091C22.9977 5.53638 25.3465 4.89206 26.2431 4.80342C26.509 4.75569 27.0375 4.7216 27.5761 4.7216C28.2647 4.7216 29.5738 4.77274 30.6102 5.11706C31.817 5.36933 35.6659 8.61478 35.8295 8.75115L35.8977 8.8091L34.5272 10.2205L31.5647 7.67728H26.85C28.5409 8.52615 30.5659 12.3205 30.8318 12.825C31.5954 12.7841 32.3659 12.7636 33.1227 12.7636C36.4738 12.7636 38.5943 13.1625 38.6181 13.1659C38.6522 13.1727 41.8295 13.9023 43.3431 14.4307C44.1852 14.4341 44.6829 14.6182 44.8227 14.9796C45.0477 15.5727 44.2022 16.4182 44.0113 16.5989C44.059 16.8205 44.2602 17.8057 44.4784 19.7114L44.4852 19.7625L44.4443 19.7932C42.6749 21.0375 39.3886 21.225 37.5852 21.225C36.7772 21.225 36.2386 21.1875 36.2318 21.1875L36 21.1705L36.1875 21.0341C36.467 20.8295 37.1931 20.2193 37.1931 19.8341L37.1999 19.8068C37.2545 19.6534 37.1011 18.4841 36.4874 17.8398C35.7477 17.1068 34.9806 16.7352 34.2102 16.7352C32.8534 16.7352 31.9261 17.9046 31.9159 17.9182C31.8681 17.9693 27.5795 22.3193 25.7011 24.9511C25.3329 25.6807 25.2681 26.2636 25.517 26.6693C25.8954 27.2864 26.8943 27.3545 27.3068 27.3545C27.3988 27.3545 27.4534 27.3511 27.4568 27.3511C27.467 27.3511 27.5113 27.3511 27.5897 27.3511C28.3636 27.3511 32.3727 27.1636 34.9465 23.4477L35.0625 23.2773L35.0965 23.4818C35.6318 26.6625 34.159 29.3966 33.6545 30.2182C33.9954 30.0375 34.6363 29.625 35.3318 28.817C36.2761 27.7193 37.5272 25.6364 38.0965 21.9716L38.1306 21.7432L38.2499 21.9409C40.7829 26.0523 38.6727 30.15 38.2397 30.9034C38.4068 30.9102 38.7034 30.9239 38.9931 30.9239C39.2522 30.9239 39.4568 30.9136 39.6034 30.8966L39.784 30.8761L39.6852 31.0261C38.059 33.5114 33.2318 35.7375 31.4352 35.9079C30.2045 35.9932 29.0318 36.0375 27.9443 36.0375Z" fill="black"/>
</g>
<path d="M35.7068 8.88409L35.9284 8.74432L31.1829 1.60909L42.1534 12.7364H37.6363L34.5204 10.1045L35.7068 8.88409Z" fill="black"/>
<path d="M37.6671 12.6511H41.9524L31.7387 2.29432L36.0478 8.77159L35.7614 8.94886L34.6467 10.0977L37.6671 12.6511ZM42.3546 12.8182H37.6058L34.3978 10.108L35.6626 8.8125L35.8092 8.72045L31.1115 1.65682L31.241 1.55114L42.3546 12.8182Z" fill="black"/>
<mask id="mask16_23_1015" style="mask-type:luminance" maskUnits="userSpaceOnUse" x="0" y="19" width="16" height="11">
<path d="M0 19.3738H15.0989V29.8466H0V19.3738Z" fill="white"/>
</mask>
<g mask="url(#mask16_23_1015)">
<path d="M6.27973 20.1716C6.92404 23.1 7.17973 24 14.4922 27.9682C2.45132 23.2704 0.678593 29.3761 0.678593 29.3761L0.146775 29.5466C0.12632 27.4398 1.97405 23.9454 1.97405 23.9454C1.97405 23.9454 5.71723 22.367 6.27973 20.1716Z" fill="black"/>
</g>
</svg>
